<svg width="28" height="28" viewBox="0 0 28 28" fill="none" xmlns="http://www.w3.org/2000/svg">
<path d="M6.32572 8.13413C6.70818 4.18208 10.0295 1.16669 14 1.16669C17.9705 1.16669 21.2918 4.18208 21.6743 8.13414L22.2718 14.3091C22.4517 16.1675 24.2575 17.7275 25.347 19.1118C25.9495 19.8771 25.4043 21 24.4303 21H3.56967C2.5957 21 2.05052 19.8771 2.65293 19.1118C3.7425 17.7275 5.54829 16.1675 5.72814 14.3091L6.32572 8.13413ZM18.0275 23.9133C18.0891 23.597 17.8222 23.3334 17.5 23.3334H10.5C10.1778 23.3334 9.91093 23.597 9.97245 23.9133C10.7236 27.7741 17.2764 27.7741 18.0275 23.9133Z" fill="black"/>
</svg>
