<svg width="24" height="24" viewBox="0 0 24 24" fill="none" xmlns="http://www.w3.org/2000/svg">
<path d="M12 3C7.02944 3 3 7.02944 3 12C3 16.9706 7.02944 21 12 21C16.9706 21 21 16.9706 21 12C21 7.02944 16.9706 3 12 3ZM1 12C1 5.92487 5.92487 1 12 1C18.0751 1 23 5.92487 23 12C23 18.0751 18.0751 23 12 23C5.92487 23 1 18.0751 1 12Z" fill="black"/>
<path d="M8.5 11.5C9.32843 11.5 10 10.6046 10 9.5C10 8.39543 9.32843 7.5 8.5 7.5C7.67157 7.5 7 8.39543 7 9.5C7 10.6046 7.67157 11.5 8.5 11.5Z" fill="black"/>
<path d="M15.5 11.5C16.3284 11.5 17 10.6046 17 9.5C17 8.39543 16.3284 7.5 15.5 7.5C14.6716 7.5 14 8.39543 14 9.5C14 10.6046 14.6716 11.5 15.5 11.5Z" fill="black"/>
<path d="M8 14.1716C8 15.7337 9.79086 18 12 18C14.2091 18 16 15.7337 16 14.1716C16 12.6095 8 12.6095 8 14.1716Z" fill="black"/>
</svg>
