<svg width="106" height="26" viewBox="0 0 106 26" fill="none" xmlns="http://www.w3.org/2000/svg">
<path d="M9.20831 12.4583C10.1058 12.4583 10.8333 11.6095 10.8333 10.5625C10.8333 9.51546 10.1058 8.66666 9.20831 8.66666C8.31085 8.66666 7.58331 9.51546 7.58331 10.5625C7.58331 11.6095 8.31085 12.4583 9.20831 12.4583Z" fill="black"/>
<path d="M16.25 12.4583C17.1474 12.4583 17.875 11.6095 17.875 10.5625C17.875 9.51546 17.1474 8.66666 16.25 8.66666C15.3525 8.66666 14.625 9.51546 14.625 10.5625C14.625 11.6095 15.3525 12.4583 16.25 12.4583Z" fill="black"/>
<path d="M24.3825 15.9566C24.525 15.8142 24.6261 15.635 24.6671 15.4377C24.8307 14.6508 24.9166 13.8354 24.9166 13C24.9166 6.4186 19.5814 1.08333 13 1.08333C6.41859 1.08333 1.08331 6.4186 1.08331 13C1.08331 19.5814 6.41859 24.9167 13 24.9167C13.8354 24.9167 14.6508 24.8307 15.4377 24.6671C15.635 24.6261 15.8141 24.525 15.9566 24.3825L24.3825 15.9566ZM21.5667 15.7083L15.7083 21.5667V21.125C15.7083 18.1335 18.1334 15.7083 21.125 15.7083H21.5667ZM13.5416 22.7353C13.3625 22.745 13.1819 22.75 13 22.75C7.6152 22.75 3.24998 18.3848 3.24998 13C3.24998 7.61522 7.6152 3.24999 13 3.24999C18.3848 3.24999 22.75 7.61522 22.75 13C22.75 13.1819 22.745 13.3625 22.7352 13.5417H21.125C16.9368 13.5417 13.5416 16.9368 13.5416 21.125V22.7353Z" fill="black"/>
<path d="M49.1 4.33334C47.8508 4.33334 47.0442 4.33502 46.4303 4.38518C45.8417 4.43327 45.6235 4.51491 45.5164 4.56949C45.1087 4.77722 44.7772 5.10867 44.5695 5.51636C44.5149 5.62349 44.4333 5.84171 44.3852 6.43032C44.335 7.04421 44.3334 7.85081 44.3334 9.1V13.8012L44.8038 13.3346C45.2163 12.9254 45.5718 12.5728 45.8881 12.3068C46.2216 12.0264 46.584 11.7782 47.0288 11.6384C47.6916 11.4302 48.4036 11.4398 49.0605 11.6659C49.5015 11.8176 49.857 12.0755 50.1828 12.3649C50.4918 12.6393 50.8377 13.0014 51.239 13.4216L59.1497 21.6407C59.3 21.634 59.4392 21.6255 59.5697 21.6148C60.1583 21.5667 60.3765 21.4851 60.4837 21.4305C60.8913 21.2228 61.2228 20.8913 61.4305 20.4837C61.4851 20.3765 61.5668 20.1583 61.6148 19.5697C61.665 18.9558 61.6667 18.1492 61.6667 16.9V9.1C61.6667 7.85081 61.665 7.04421 61.6148 6.43032C61.5668 5.84171 61.4851 5.62349 61.4305 5.51636C61.2228 5.10867 60.8913 4.77722 60.4837 4.56949C60.3765 4.51491 60.1583 4.43327 59.5697 4.38518C58.9558 4.33502 58.1492 4.33334 56.9 4.33334H49.1ZM44.3334 16.8528V16.9C44.3334 18.1492 44.335 18.9558 44.3852 19.5697C44.4333 20.1583 44.5149 20.3765 44.5695 20.4837C44.7772 20.8913 45.1087 21.2228 45.5164 21.4305C45.6235 21.4851 45.8417 21.5667 46.4303 21.6148C47.0442 21.665 47.8508 21.6667 49.1 21.6667H56.1775L49.7014 14.9487C49.2626 14.4894 48.9784 14.193 48.7441 13.9849C48.5191 13.7852 48.4126 13.7343 48.3555 13.7146C48.1365 13.6393 47.8992 13.6361 47.6783 13.7055C47.6207 13.7236 47.5128 13.7716 47.2825 13.9652C47.0427 14.1668 46.7505 14.4554 46.2995 14.9027L44.3334 16.8528ZM42.1667 9.1C42.1667 6.67311 42.1667 5.45966 42.639 4.53271C43.0544 3.71734 43.7174 3.05443 44.5327 2.63898C45.4597 2.16667 46.6731 2.16667 49.1 2.16667H56.9C59.3269 2.16667 60.5404 2.16667 61.4673 2.63898C62.2827 3.05443 62.9456 3.71734 63.361 4.53271C63.8334 5.45966 63.8334 6.67311 63.8334 9.1V16.9C63.8334 19.3269 63.8334 20.5403 63.361 21.4673C62.9456 22.2827 62.2827 22.9456 61.4673 23.361C60.5404 23.8333 59.3269 23.8333 56.9 23.8333H49.1C46.6731 23.8333 45.4597 23.8333 44.5327 23.361C43.7174 22.9456 43.0544 22.2827 42.639 21.4673C42.1667 20.5403 42.1667 19.3269 42.1667 16.9V9.1ZM56.7917 6.5C55.2959 6.5 54.0834 7.71257 54.0834 9.20834C54.0834 10.7041 55.2959 11.9167 56.7917 11.9167C58.2875 11.9167 59.5 10.7041 59.5 9.20834C59.5 7.71257 58.2875 6.5 56.7917 6.5Z" fill="black"/>
<path d="M88.125 5.95833C88.125 3.26594 90.3076 1.08333 93 1.08333C95.6924 1.08333 97.875 3.26594 97.875 5.95833V12.4583C97.875 15.1507 95.6924 17.3333 93 17.3333C90.3076 17.3333 88.125 15.1507 88.125 12.4583V5.95833ZM95.7083 5.95833C95.7083 4.46256 94.4958 3.24999 93 3.24999C91.5042 3.24999 90.2917 4.46256 90.2917 5.95833V12.4583C90.2917 13.9541 91.5042 15.1667 93 15.1667C94.4958 15.1667 95.7083 13.9541 95.7083 12.4583V5.95833Z" fill="black"/>
<path d="M84.55 9.20727C84.8534 9.20727 85.005 9.20727 85.1209 9.26631C85.2228 9.31824 85.3057 9.4011 85.3576 9.50303C85.4167 9.61889 85.4167 9.77058 85.4167 10.0739V12.219C85.4167 12.7357 85.417 12.9522 85.4263 13.1292C85.6149 16.7283 88.4907 19.6041 92.0898 19.7927C92.2668 19.802 92.4833 19.8024 93 19.8024C93.5167 19.8024 93.7332 19.802 93.9102 19.7927C97.5093 19.6041 100.385 16.7283 100.574 13.1292C100.583 12.9522 100.583 12.7357 100.583 12.219V10.0739C100.583 9.77058 100.583 9.61889 100.642 9.50303C100.694 9.4011 100.777 9.31824 100.879 9.26631C100.995 9.20727 101.147 9.20727 101.45 9.20727H101.883C102.187 9.20727 102.338 9.20727 102.454 9.26631C102.556 9.31824 102.639 9.4011 102.691 9.50303C102.75 9.61889 102.75 9.77058 102.75 10.0739V12.259C102.75 12.724 102.75 13.0015 102.737 13.2426C102.492 17.9292 98.7619 21.6779 94.0833 21.9531V24.0489C94.0833 24.3523 94.0833 24.504 94.0243 24.6198C93.9724 24.7218 93.8895 24.8046 93.7876 24.8566C93.6717 24.9156 93.52 24.9156 93.2167 24.9156H92.7833C92.48 24.9156 92.3283 24.9156 92.2124 24.8566C92.1105 24.8046 92.0276 24.7218 91.9757 24.6198C91.9167 24.504 91.9167 24.3523 91.9167 24.0489V21.9531C87.2381 21.6779 83.5082 17.9292 83.2626 13.2426C83.25 13.0015 83.25 12.724 83.25 12.259V10.0739C83.25 9.77058 83.25 9.61889 83.309 9.50303C83.361 9.4011 83.4438 9.31824 83.5458 9.26631C83.6616 9.20727 83.8133 9.20727 84.1167 9.20727H84.55Z" fill="black"/>
</svg>
