<svg width="26" height="26" viewBox="0 0 26 26" fill="none" xmlns="http://www.w3.org/2000/svg">
<path d="M8.12498 7.58325C7.82583 7.58325 7.58331 7.82577 7.58331 8.12492V9.20825C7.58331 9.50741 7.82583 9.74992 8.12498 9.74992H9.20831C9.50747 9.74992 9.74998 9.50741 9.74998 9.20825V8.12492C9.74998 7.82577 9.50747 7.58325 9.20831 7.58325H8.12498Z" fill="black"/>
<path d="M7.58331 16.7916C7.58331 16.4924 7.82583 16.2499 8.12498 16.2499H17.875C18.1741 16.2499 18.4166 16.4924 18.4166 16.7916V17.8749C18.4166 18.1741 18.1741 18.4166 17.875 18.4166H8.12498C7.82583 18.4166 7.58331 18.1741 7.58331 17.8749V16.7916Z" fill="black"/>
<path d="M8.12498 11.9166C7.82583 11.9166 7.58331 12.1591 7.58331 12.4583V13.5416C7.58331 13.8407 7.82583 14.0833 8.12498 14.0833H9.20831C9.50747 14.0833 9.74998 13.8407 9.74998 13.5416V12.4583C9.74998 12.1591 9.50747 11.9166 9.20831 11.9166H8.12498Z" fill="black"/>
<path d="M11.9166 8.12492C11.9166 7.82577 12.1592 7.58325 12.4583 7.58325H13.5416C13.8408 7.58325 14.0833 7.82577 14.0833 8.12492V9.20825C14.0833 9.50741 13.8408 9.74992 13.5416 9.74992H12.4583C12.1592 9.74992 11.9166 9.50741 11.9166 9.20825V8.12492Z" fill="black"/>
<path d="M12.4583 11.9166C12.1592 11.9166 11.9166 12.1591 11.9166 12.4583V13.5416C11.9166 13.8407 12.1592 14.0833 12.4583 14.0833H13.5416C13.8408 14.0833 14.0833 13.8407 14.0833 13.5416V12.4583C14.0833 12.1591 13.8408 11.9166 13.5416 11.9166H12.4583Z" fill="black"/>
<path d="M16.25 8.12492C16.25 7.82577 16.4925 7.58325 16.7916 7.58325H17.875C18.1741 7.58325 18.4166 7.82577 18.4166 8.12492V9.20825C18.4166 9.50741 18.1741 9.74992 17.875 9.74992H16.7916C16.4925 9.74992 16.25 9.50741 16.25 9.20825V8.12492Z" fill="black"/>
<path d="M16.7916 11.9166C16.4925 11.9166 16.25 12.1591 16.25 12.4583V13.5416C16.25 13.8407 16.4925 14.0833 16.7916 14.0833H17.875C18.1741 14.0833 18.4166 13.8407 18.4166 13.5416V12.4583C18.4166 12.1591 18.1741 11.9166 17.875 11.9166H16.7916Z" fill="black"/>
<path d="M13 1.08325C6.41859 1.08325 1.08331 6.41853 1.08331 12.9999C1.08331 19.5813 6.41859 24.9166 13 24.9166C19.5814 24.9166 24.9166 19.5813 24.9166 12.9999C24.9166 6.41853 19.5814 1.08325 13 1.08325ZM3.24998 12.9999C3.24998 7.61514 7.6152 3.24992 13 3.24992C18.3848 3.24992 22.75 7.61514 22.75 12.9999C22.75 18.3847 18.3848 22.7499 13 22.7499C7.6152 22.7499 3.24998 18.3847 3.24998 12.9999Z" fill="black"/>
</svg>
