<svg width="66" height="26" viewBox="0 0 66 26" fill="none" xmlns="http://www.w3.org/2000/svg">
<path d="M8.12498 7.58325C7.82583 7.58325 7.58331 7.82577 7.58331 8.12492V9.20825C7.58331 9.50741 7.82583 9.74992 8.12498 9.74992H9.20831C9.50747 9.74992 9.74998 9.50741 9.74998 9.20825V8.12492C9.74998 7.82577 9.50747 7.58325 9.20831 7.58325H8.12498Z" fill="black"/>
<path d="M7.58331 16.7916C7.58331 16.4924 7.82583 16.2499 8.12498 16.2499H17.875C18.1741 16.2499 18.4166 16.4924 18.4166 16.7916V17.8749C18.4166 18.1741 18.1741 18.4166 17.875 18.4166H8.12498C7.82583 18.4166 7.58331 18.1741 7.58331 17.8749V16.7916Z" fill="black"/>
<path d="M8.12498 11.9166C7.82583 11.9166 7.58331 12.1591 7.58331 12.4583V13.5416C7.58331 13.8407 7.82583 14.0833 8.12498 14.0833H9.20831C9.50747 14.0833 9.74998 13.8407 9.74998 13.5416V12.4583C9.74998 12.1591 9.50747 11.9166 9.20831 11.9166H8.12498Z" fill="black"/>
<path d="M11.9166 8.12492C11.9166 7.82577 12.1592 7.58325 12.4583 7.58325H13.5416C13.8408 7.58325 14.0833 7.82577 14.0833 8.12492V9.20825C14.0833 9.50741 13.8408 9.74992 13.5416 9.74992H12.4583C12.1592 9.74992 11.9166 9.50741 11.9166 9.20825V8.12492Z" fill="black"/>
<path d="M12.4583 11.9166C12.1592 11.9166 11.9166 12.1591 11.9166 12.4583V13.5416C11.9166 13.8407 12.1592 14.0833 12.4583 14.0833H13.5416C13.8408 14.0833 14.0833 13.8407 14.0833 13.5416V12.4583C14.0833 12.1591 13.8408 11.9166 13.5416 11.9166H12.4583Z" fill="black"/>
<path d="M16.25 8.12492C16.25 7.82577 16.4925 7.58325 16.7916 7.58325H17.875C18.1741 7.58325 18.4166 7.82577 18.4166 8.12492V9.20825C18.4166 9.50741 18.1741 9.74992 17.875 9.74992H16.7916C16.4925 9.74992 16.25 9.50741 16.25 9.20825V8.12492Z" fill="black"/>
<path d="M16.7916 11.9166C16.4925 11.9166 16.25 12.1591 16.25 12.4583V13.5416C16.25 13.8407 16.4925 14.0833 16.7916 14.0833H17.875C18.1741 14.0833 18.4166 13.8407 18.4166 13.5416V12.4583C18.4166 12.1591 18.1741 11.9166 17.875 11.9166H16.7916Z" fill="black"/>
<path d="M13 1.08325C6.41859 1.08325 1.08331 6.41853 1.08331 12.9999C1.08331 19.5813 6.41859 24.9166 13 24.9166C19.5814 24.9166 24.9166 19.5813 24.9166 12.9999C24.9166 6.41853 19.5814 1.08325 13 1.08325ZM3.24998 12.9999C3.24998 7.61514 7.6152 3.24992 13 3.24992C18.3848 3.24992 22.75 7.61514 22.75 12.9999C22.75 18.3847 18.3848 22.7499 13 22.7499C7.6152 22.7499 3.24998 18.3847 3.24998 12.9999Z" fill="black"/>
<path d="M49.1 4.33341C47.8508 4.33341 47.0442 4.3351 46.4303 4.38526C45.8417 4.43335 45.6235 4.51498 45.5164 4.56957C45.1087 4.77729 44.7772 5.10875 44.5695 5.51644C44.5149 5.62356 44.4333 5.84179 44.3852 6.43039C44.335 7.04429 44.3334 7.85088 44.3334 9.10008V13.8013L44.8038 13.3347C45.2163 12.9255 45.5718 12.5729 45.8881 12.3069C46.2216 12.0265 46.584 11.7783 47.0288 11.6385C47.6916 11.4303 48.4036 11.4399 49.0605 11.666C49.5015 11.8177 49.857 12.0756 50.1828 12.3649C50.4918 12.6394 50.8377 13.0015 51.239 13.4217L59.1497 21.6408C59.3 21.634 59.4392 21.6256 59.5697 21.6149C60.1583 21.5668 60.3765 21.4852 60.4837 21.4306C60.8913 21.2229 61.2228 20.8914 61.4305 20.4837C61.4851 20.3766 61.5668 20.1584 61.6148 19.5698C61.665 18.9559 61.6667 18.1493 61.6667 16.9001V9.10008C61.6667 7.85088 61.665 7.04429 61.6148 6.43039C61.5668 5.84179 61.4851 5.62356 61.4305 5.51644C61.2228 5.10875 60.8913 4.77729 60.4837 4.56957C60.3765 4.51498 60.1583 4.43335 59.5697 4.38526C58.9558 4.3351 58.1492 4.33341 56.9 4.33341H49.1ZM44.3334 16.8529V16.9001C44.3334 18.1493 44.335 18.9559 44.3852 19.5698C44.4333 20.1584 44.5149 20.3766 44.5695 20.4837C44.7772 20.8914 45.1087 21.2229 45.5164 21.4306C45.6235 21.4852 45.8417 21.5668 46.4303 21.6149C47.0442 21.6651 47.8508 21.6667 49.1 21.6667H56.1775L49.7014 14.9487C49.2626 14.4894 48.9784 14.1931 48.7441 13.985C48.5191 13.7852 48.4126 13.7343 48.3555 13.7147C48.1365 13.6393 47.8992 13.6361 47.6783 13.7055C47.6207 13.7236 47.5128 13.7716 47.2825 13.9652C47.0427 14.1669 46.7505 14.4555 46.2995 14.9028L44.3334 16.8529ZM42.1667 9.10008C42.1667 6.67319 42.1667 5.45974 42.639 4.53279C43.0544 3.71742 43.7174 3.0545 44.5327 2.63905C45.4597 2.16675 46.6731 2.16675 49.1 2.16675H56.9C59.3269 2.16675 60.5404 2.16675 61.4673 2.63905C62.2827 3.0545 62.9456 3.71742 63.361 4.53279C63.8334 5.45974 63.8334 6.67319 63.8334 9.10008V16.9001C63.8334 19.327 63.8334 20.5404 63.361 21.4674C62.9456 22.2827 62.2827 22.9457 61.4673 23.3611C60.5404 23.8334 59.3269 23.8334 56.9 23.8334H49.1C46.6731 23.8334 45.4597 23.8334 44.5327 23.3611C43.7174 22.9457 43.0544 22.2827 42.639 21.4674C42.1667 20.5404 42.1667 19.327 42.1667 16.9001V9.10008ZM56.7917 6.50008C55.2959 6.50008 54.0834 7.71264 54.0834 9.20841C54.0834 10.7042 55.2959 11.9167 56.7917 11.9167C58.2875 11.9167 59.5 10.7042 59.5 9.20841C59.5 7.71264 58.2875 6.50008 56.7917 6.50008Z" fill="black"/>
</svg>
