<svg width="17" height="18" viewBox="0 0 17 18" fill="none" xmlns="http://www.w3.org/2000/svg">
<path fill-rule="evenodd" clip-rule="evenodd" d="M5.80929 0.122611C5.97277 -0.0408704 6.23842 -0.0408705 6.4019 0.122611L6.99353 0.714241C7.15694 0.877658 7.15681 1.14237 6.99353 1.30587L2.85801 5.44139H7.90697C9.28199 5.44139 10.3652 5.44181 11.237 5.51301C12.1264 5.58568 12.8696 5.7362 13.5446 6.08012C14.6474 6.642 15.5435 7.53912 16.1054 8.64188C16.4493 9.31678 16.6008 10.0593 16.6735 10.9486C16.7447 11.8204 16.7441 12.9043 16.7441 14.2795V17.5821C16.744 17.813 16.5571 17.9999 16.3262 18H15.4883C15.2573 17.9999 15.0705 17.813 15.0703 17.5821V14.3168C15.0703 12.8963 15.0696 11.8806 15.0046 11.0849C14.9404 10.2995 14.8175 9.80173 14.6141 9.40227C14.2127 8.61458 13.5719 7.97378 12.7842 7.57244C12.3847 7.36885 11.8865 7.24615 11.1006 7.18194C10.305 7.11696 9.29002 7.1162 7.86969 7.1162H2.85801L6.99353 11.2517C7.15693 11.4152 7.15687 11.6799 6.99353 11.8434L6.4019 12.436C6.23843 12.5994 5.97277 12.5994 5.80929 12.436L0.245223 6.87092C-0.0817408 6.54395 -0.0817409 6.01364 0.245223 5.68668L5.80929 0.122611Z" fill="black"/>
</svg>
