<svg width="24" height="24" viewBox="0 0 24 24" fill="none" xmlns="http://www.w3.org/2000/svg">
<path d="M4.5 4.6564V13.5313C7.13455 12.664 10.2248 12.5031 12.5812 14.1863C14.5962 15.6255 17.3411 15.1925 19.5 14.3436V5.46869C16.8655 6.33599 13.7752 6.49685 11.4188 4.81373C9.41568 3.38297 6.65726 3.80809 4.5 4.6564ZM21.5 3.99999V15C21.5 15.3788 21.286 15.725 20.9472 15.8944C18.0371 17.3495 14.2032 17.8026 11.4188 15.8137C9.4038 14.3745 6.65887 14.8075 4.5 15.6564V22C4.5 22.2762 4.27614 22.5 4 22.5H3C2.72386 22.5 2.5 22.2762 2.5 22V3.99999C2.5 3.62459 2.71767 3.27297 3.05344 3.10524C5.92618 1.67243 9.85858 1.24152 12.5812 3.18626C14.7673 4.74773 17.7947 4.20394 20.0528 3.10556C20.7059 2.77931 21.5 3.27049 21.5 3.99999Z" fill="black"/>
</svg>
