<svg width="24" height="24" viewBox="0 0 24 24" fill="none" xmlns="http://www.w3.org/2000/svg">
<path fill-rule="evenodd" clip-rule="evenodd" d="M10.915 3.75C14.875 3.75 18.085 6.96 18.085 10.915C18.085 14.875 14.875 18.085 10.915 18.085C6.96 18.085 3.75 14.875 3.75 10.915C3.75 6.96 6.96 3.75 10.915 3.75ZM10.915 1.75C5.855 1.75 1.75 5.855 1.75 10.915C1.75 15.98 5.855 20.085 10.915 20.085C13.09 20.085 15.08 19.33 16.655 18.07L21.1064 22.5168C21.3017 22.7119 21.6182 22.7118 21.8134 22.5166L22.5166 21.8134C22.7118 21.6182 22.7119 21.3017 22.5168 21.1064L18.07 16.655C19.33 15.08 20.085 13.09 20.085 10.915C20.085 5.855 15.98 1.75 10.915 1.75Z" fill="black"/>
</svg>
