<svg width="28" height="28" viewBox="0 0 28 28" fill="none" xmlns="http://www.w3.org/2000/svg">
<path fill-rule="evenodd" clip-rule="evenodd" d="M5.23399 4.50337L2.12218 11.5459C1.76544 12.3532 1.58707 12.7569 1.46146 13.1759C1.34989 13.5481 1.2695 13.929 1.22113 14.3145C1.16667 14.7485 1.16667 15.1899 1.16667 16.0725V20.0667C1.16667 22.0269 1.16667 23.007 1.54815 23.7557C1.88371 24.4142 2.41914 24.9497 3.0777 25.2852C3.8264 25.6667 4.80649 25.6667 6.76667 25.6667H21.2333C23.1935 25.6667 24.1736 25.6667 24.9223 25.2852C25.5809 24.9497 26.1163 24.4142 26.4519 23.7557C26.8333 23.007 26.8333 22.0269 26.8333 20.0667V16.0725C26.8333 15.1899 26.8333 14.7485 26.7789 14.3145C26.7305 13.929 26.6501 13.5481 26.5385 13.1759C26.4129 12.7569 26.2346 12.3532 25.8778 11.5459L22.766 4.50337C22.2324 3.29578 21.9656 2.69199 21.5427 2.24917C21.1688 1.85775 20.7092 1.55839 20.2001 1.37461C19.6241 1.16669 18.964 1.16669 17.6438 1.16669H10.3562C9.03601 1.16669 8.3759 1.16669 7.79991 1.37461C7.29078 1.55839 6.83122 1.85775 6.45735 2.24917C6.03437 2.69199 5.76758 3.29578 5.23399 4.50337ZM4.79002 12.7247L7.90183 5.68218C8.18346 5.0448 8.3407 4.69242 8.47338 4.43793C8.53103 4.32737 8.56612 4.27134 8.58105 4.24902C8.63562 4.19581 8.7001 4.15381 8.77083 4.1254C8.79728 4.12076 8.8627 4.11131 8.98714 4.10327C9.27353 4.08475 9.6594 4.08335 10.3562 4.08335H17.6438C18.3406 4.08335 18.7265 4.08475 19.0129 4.10327C19.1373 4.11131 19.2027 4.12076 19.2292 4.1254C19.2999 4.15381 19.3644 4.19581 19.419 4.24902C19.4339 4.27134 19.469 4.32737 19.5266 4.43793C19.6593 4.69242 19.8165 5.0448 20.0982 5.68218L23.21 12.7247C23.3071 12.9445 23.3853 13.1223 23.449 13.2688C23.6054 13.6282 23.3446 14 22.9527 14H17.9894C17.5888 15.8347 15.9548 17.2084 14 17.2084C12.0452 17.2084 10.4112 15.8347 10.0106 14H5.04728C4.65537 14 4.39465 13.6282 4.55097 13.2688C4.61467 13.1223 4.69291 12.9445 4.79002 12.7247ZM19.2397 4.12737C19.2422 4.128 19.2435 4.12826 19.2435 4.12826L19.2422 4.12791L19.2397 4.12737Z" fill="black"/>
</svg>
