<svg width="26" height="26" viewBox="0 0 26 26" fill="none" xmlns="http://www.w3.org/2000/svg">
<g transform="translate(-80,0)">
<path d="M88.125 5.95833C88.125 3.26594 90.3076 1.08333 93 1.08333C95.6924 1.08333 97.875 3.26594 97.875 5.95833V12.4583C97.875 15.1507 95.6924 17.3333 93 17.3333C90.3076 17.3333 88.125 15.1507 88.125 12.4583V5.95833ZM95.7083 5.95833C95.7083 4.46256 94.4958 3.24999 93 3.24999C91.5042 3.24999 90.2917 4.46256 90.2917 5.95833V12.4583C90.2917 13.9541 91.5042 15.1667 93 15.1667C94.4958 15.1667 95.7083 13.9541 95.7083 12.4583V5.95833Z" fill="black"/>
<path d="M84.55 9.20727C84.8534 9.20727 85.005 9.20727 85.1209 9.26631C85.2228 9.31824 85.3057 9.4011 85.3576 9.50303C85.4167 9.61889 85.4167 9.77058 85.4167 10.0739V12.219C85.4167 12.7357 85.417 12.9522 85.4263 13.1292C85.6149 16.7283 88.4907 19.6041 92.0898 19.7927C92.2668 19.802 92.4833 19.8024 93 19.8024C93.5167 19.8024 93.7332 19.802 93.9102 19.7927C97.5093 19.6041 100.385 16.7283 100.574 13.1292C100.583 12.9522 100.583 12.7357 100.583 12.219V10.0739C100.583 9.77058 100.583 9.61889 100.642 9.50303C100.694 9.4011 100.777 9.31824 100.879 9.26631C100.995 9.20727 101.147 9.20727 101.45 9.20727H101.883C102.187 9.20727 102.338 9.20727 102.454 9.26631C102.556 9.31824 102.639 9.4011 102.691 9.50303C102.75 9.61889 102.75 9.77058 102.75 10.0739V12.259C102.75 12.724 102.75 13.0015 102.737 13.2426C102.492 17.9292 98.7619 21.6779 94.0833 21.9531V24.0489C94.0833 24.3523 94.0833 24.504 94.0243 24.6198C93.9724 24.7218 93.8895 24.8046 93.7876 24.8566C93.6717 24.9156 93.52 24.9156 93.2167 24.9156H92.7833C92.48 24.9156 92.3283 24.9156 92.2124 24.8566C92.1105 24.8046 92.0276 24.7218 91.9757 24.6198C91.9167 24.504 91.9167 24.3523 91.9167 24.0489V21.9531C87.2381 21.6779 83.5082 17.9292 83.2626 13.2426C83.25 13.0015 83.25 12.724 83.25 12.259V10.0739C83.25 9.77058 83.25 9.61889 83.309 9.50303C83.361 9.4011 83.4438 9.31824 83.5458 9.26631C83.6616 9.20727 83.8133 9.20727 84.1167 9.20727H84.55Z" fill="black"/>
</g>
</svg>
