<svg width="17" height="17" viewBox="0 0 17 17" fill="none" xmlns="http://www.w3.org/2000/svg">
<path fill-rule="evenodd" clip-rule="evenodd" d="M12.9198 0C14.348 0 15.0629 -2.32253e-05 15.6084 0.277921C16.088 0.522421 16.4777 0.912899 16.7221 1.39259C16.9999 1.93807 17 2.65212 17 4.08016V7.81964C17 9.24783 17 9.96271 16.7221 10.5082C16.4777 10.9877 16.0879 11.3774 15.6084 11.6219C15.0629 11.8998 14.348 11.8998 12.9198 11.8998H11.8998V12.9198C11.8998 14.348 11.8998 15.0629 11.6219 15.6084C11.3775 16.0879 10.9877 16.4776 10.5082 16.7221C9.96271 17 9.24783 17 7.81964 17H4.08016C2.65197 17 1.93709 17 1.3916 16.7221C0.912133 16.4776 0.522326 16.0879 0.277921 15.6084C-2.32253e-05 15.0629 0 14.348 0 12.9198V9.18036C0 7.75232 6.72438e-05 7.03827 0.277921 6.49279C0.522337 6.0131 0.911955 5.62262 1.3916 5.37812C1.93709 5.10018 2.65197 5.1002 4.08016 5.1002H5.1002V4.08016C5.1002 2.65212 5.10027 1.93807 5.37812 1.39259C5.62254 0.912899 6.01215 0.522421 6.4918 0.277921C7.03729 -2.32253e-05 7.75217 0 9.18036 0H12.9198ZM4.08016 6.7996C3.33801 6.7996 2.88307 6.80171 2.54313 6.82949C2.38516 6.8424 2.28952 6.85864 2.23134 6.87232C2.20409 6.87874 2.18685 6.88396 2.17755 6.88726C2.16871 6.89042 2.1636 6.89324 2.1636 6.89324C2.00391 6.97471 1.87348 7.10408 1.79204 7.2638C1.79204 7.2638 1.79022 7.26891 1.78706 7.27775C1.78377 7.28701 1.77858 7.30409 1.77212 7.33154C1.75843 7.38968 1.74221 7.48529 1.72929 7.64333C1.70151 7.98327 1.6994 8.43821 1.6994 9.18036V12.9198C1.6994 13.662 1.70151 14.1169 1.72929 14.4569C1.7422 14.6148 1.75844 14.7105 1.77212 14.7687C1.77864 14.7963 1.78378 14.8142 1.78706 14.8235C1.78994 14.8315 1.79177 14.8359 1.79204 14.8364C1.87352 14.9963 2.00372 15.1265 2.1636 15.208C2.1636 15.208 2.16871 15.2098 2.17755 15.2129C2.18683 15.2162 2.20398 15.2224 2.23134 15.2289C2.28954 15.2426 2.38526 15.2588 2.54313 15.2717C2.88307 15.2995 3.33801 15.3006 4.08016 15.3006H7.81964C8.56179 15.3006 9.01673 15.2995 9.35667 15.2717C9.51454 15.2588 9.61026 15.2426 9.66846 15.2289C9.69582 15.2224 9.71297 15.2162 9.72225 15.2129C9.72403 15.2123 9.72586 15.2115 9.72724 15.2109C9.73032 15.2098 9.73285 15.2096 9.73421 15.209L9.7362 15.208C9.89608 15.1265 10.0263 14.9963 10.1078 14.8364C10.108 14.8359 10.1099 14.8315 10.1127 14.8235C10.116 14.8142 10.1212 14.7963 10.1277 14.7687C10.1414 14.7105 10.1576 14.6148 10.1705 14.4569C10.1983 14.1169 10.2004 13.662 10.2004 12.9198V9.18036C10.2004 8.43821 10.1983 7.98327 10.1705 7.64333C10.1576 7.48529 10.1414 7.38968 10.1277 7.33154C10.1212 7.30409 10.116 7.28701 10.1127 7.27775C10.1096 7.26891 10.1078 7.2638 10.1078 7.2638C10.0263 7.10408 9.89589 6.97471 9.7362 6.89324C9.7362 6.89324 9.73109 6.89042 9.72225 6.88726C9.71295 6.88396 9.69571 6.87874 9.66846 6.87232C9.61028 6.85864 9.51464 6.8424 9.35667 6.82949C9.01673 6.80171 8.56179 6.7996 7.81964 6.7996H4.08016ZM9.18036 1.7004C8.43821 1.7004 7.98327 1.70151 7.64333 1.72929C7.48536 1.7422 7.38972 1.75844 7.33154 1.77212C7.30429 1.77854 7.28705 1.78376 7.27775 1.78706C7.26891 1.79022 7.2638 1.79304 7.2638 1.79304C7.10411 1.87451 6.97367 2.00388 6.89224 2.1636C6.89224 2.1636 6.89042 2.16871 6.88726 2.17755C6.88397 2.18681 6.87878 2.20389 6.87232 2.23134C6.85863 2.28948 6.84241 2.38509 6.82949 2.54313C6.80171 2.88307 6.7996 3.33801 6.7996 4.08016V5.1002H7.81964C9.24783 5.1002 9.96271 5.10018 10.5082 5.37812C10.9878 5.62262 11.3775 6.0131 11.6219 6.49279C11.8997 7.03827 11.8998 7.75232 11.8998 9.18036V10.2004H12.9198C13.662 10.2004 14.1169 10.1993 14.4569 10.1715C14.6147 10.1586 14.7105 10.1424 14.7687 10.1287C14.796 10.1222 14.8132 10.116 14.8225 10.1127C14.8242 10.1121 14.8261 10.1113 14.8274 10.1107C14.8305 10.1096 14.833 10.1094 14.8344 10.1088L14.8364 10.1078C14.9963 10.0263 15.1265 9.8961 15.208 9.7362L15.209 9.73421C15.2096 9.73284 15.2098 9.73018 15.2109 9.72724C15.2114 9.726 15.2124 9.72479 15.2129 9.72325C15.2162 9.71411 15.2214 9.69681 15.2279 9.66946C15.2416 9.61129 15.2578 9.51497 15.2707 9.35667C15.2985 9.01673 15.3006 8.56179 15.3006 7.81964V4.08016C15.3006 3.33801 15.2985 2.88307 15.2707 2.54313C15.2578 2.38509 15.2416 2.28948 15.2279 2.23134C15.2214 2.20389 15.2162 2.18681 15.2129 2.17755C15.2098 2.16871 15.208 2.1636 15.208 2.1636C15.1265 2.00388 14.9961 1.87451 14.8364 1.79304C14.8364 1.79304 14.8313 1.79022 14.8225 1.78706C14.8132 1.78376 14.7959 1.77854 14.7687 1.77212C14.7105 1.75844 14.6148 1.7422 14.4569 1.72929C14.1169 1.70151 13.662 1.7004 12.9198 1.7004H9.18036Z" fill="black"/>
</svg>
