<svg width="17" height="19" viewBox="0 0 17 19" fill="none" xmlns="http://www.w3.org/2000/svg">
<path fill-rule="evenodd" clip-rule="evenodd" d="M9.71078 0C10.8766 1.50998e-07 11.8213 0.945037 11.8216 2.11078V2.95589H16.4667C16.6996 2.95606 16.888 3.14456 16.8882 3.37745V4.22255C16.8881 4.45552 16.6996 4.64394 16.4667 4.64411H15.3098L14.6805 15.1881C14.6004 16.5295 14.5603 17.2006 14.2738 17.7096C14.0214 18.1575 13.6384 18.5184 13.1763 18.7437C12.651 18.9996 11.9782 19 10.6341 19H6.25417C4.91001 19 4.23719 18.9996 3.71193 18.7437C3.24979 18.5184 2.86681 18.1575 2.61448 17.7096C2.32796 17.2006 2.28785 16.5295 2.20776 15.1881L1.57839 4.64411H0.421563C0.18861 4.64394 0.000133724 4.45552 0 4.22255V3.37745C0.000222753 3.14456 0.188665 2.95606 0.421563 2.95589H5.06667V2.11078C5.06689 0.945036 6.01165 0 7.17745 0H9.71078ZM3.27057 4.64411L3.89401 15.0872C3.93567 15.7849 3.96245 16.21 4.00682 16.527C4.02744 16.6743 4.04754 16.7632 4.06323 16.817C4.07071 16.8426 4.07642 16.8586 4.08005 16.8674C4.08354 16.8759 4.08528 16.88 4.08599 16.8813C4.17012 17.0307 4.29803 17.1506 4.45214 17.2257C4.45343 17.2263 4.45735 17.2286 4.46599 17.2316C4.47501 17.2347 4.49141 17.2395 4.51745 17.2455C4.57209 17.2579 4.6621 17.2723 4.81036 17.2841C5.12948 17.3095 5.55522 17.3108 6.25417 17.3108H10.6341C11.333 17.3108 11.7587 17.3095 12.0779 17.2841C12.2261 17.2723 12.3161 17.2579 12.3708 17.2455C12.3968 17.2395 12.4132 17.2347 12.4222 17.2316C12.4309 17.2286 12.4348 17.2263 12.4361 17.2257C12.5902 17.1506 12.7181 17.0307 12.8022 16.8813L12.8062 16.8734L12.825 16.817C12.8407 16.7632 12.8608 16.6743 12.8814 16.527C12.9258 16.21 12.9526 15.7849 12.9942 15.0872L13.6177 4.64411H3.27057ZM7.17745 7.6C7.41063 7.6 7.6 7.78937 7.6 8.02255V13.9333C7.6 14.1665 7.41063 14.3559 7.17745 14.3559H6.33333C6.10015 14.3559 5.91078 14.1665 5.91078 13.9333V8.02255C5.91078 7.78937 6.10015 7.6 6.33333 7.6H7.17745ZM10.5549 7.6C10.7881 7.6 10.9774 7.78937 10.9774 8.02255V13.9333C10.9774 14.1665 10.7881 14.3559 10.5549 14.3559H9.71078C9.47759 14.3559 9.28823 14.1665 9.28823 13.9333V8.02255C9.28823 7.78937 9.47759 7.6 9.71078 7.6H10.5549ZM7.17745 1.68922C6.9444 1.68922 6.75512 1.87778 6.7549 2.11078V2.95589H10.1333V2.11078C10.1331 1.87778 9.94383 1.68922 9.71078 1.68922H7.17745Z" fill="#FF4C3A"/>
</svg>
