<svg width="26" height="26" viewBox="0 0 26 26" fill="none" xmlns="http://www.w3.org/2000/svg">
<g transform="translate(-40,0)">
<path d="M49.1 4.33334C47.8508 4.33334 47.0442 4.33502 46.4303 4.38518C45.8417 4.43327 45.6235 4.51491 45.5164 4.56949C45.1087 4.77722 44.7772 5.10867 44.5695 5.51636C44.5149 5.62349 44.4333 5.84171 44.3852 6.43032C44.335 7.04421 44.3334 7.85081 44.3334 9.1V13.8012L44.8038 13.3346C45.2163 12.9254 45.5718 12.5728 45.8881 12.3068C46.2216 12.0264 46.584 11.7782 47.0288 11.6384C47.6916 11.4302 48.4036 11.4398 49.0605 11.6659C49.5015 11.8176 49.857 12.0755 50.1828 12.3649C50.4918 12.6393 50.8377 13.0014 51.239 13.4216L59.1497 21.6407C59.3 21.634 59.4392 21.6255 59.5697 21.6148C60.1583 21.5667 60.3765 21.4851 60.4837 21.4305C60.8913 21.2228 61.2228 20.8913 61.4305 20.4837C61.4851 20.3765 61.5668 20.1583 61.6148 19.5697C61.665 18.9558 61.6667 18.1492 61.6667 16.9V9.1C61.6667 7.85081 61.665 7.04421 61.6148 6.43032C61.5668 5.84171 61.4851 5.62349 61.4305 5.51636C61.2228 5.10867 60.8913 4.77722 60.4837 4.56949C60.3765 4.51491 60.1583 4.43327 59.5697 4.38518C58.9558 4.33502 58.1492 4.33334 56.9 4.33334H49.1ZM44.3334 16.8528V16.9C44.3334 18.1492 44.335 18.9558 44.3852 19.5697C44.4333 20.1583 44.5149 20.3765 44.5695 20.4837C44.7772 20.8913 45.1087 21.2228 45.5164 21.4305C45.6235 21.4851 45.8417 21.5667 46.4303 21.6148C47.0442 21.665 47.8508 21.6667 49.1 21.6667H56.1775L49.7014 14.9487C49.2626 14.4894 48.9784 14.193 48.7441 13.9849C48.5191 13.7852 48.4126 13.7343 48.3555 13.7146C48.1365 13.6393 47.8992 13.6361 47.6783 13.7055C47.6207 13.7236 47.5128 13.7716 47.2825 13.9652C47.0427 14.1668 46.7505 14.4554 46.2995 14.9027L44.3334 16.8528ZM42.1667 9.1C42.1667 6.67311 42.1667 5.45966 42.639 4.53271C43.0544 3.71734 43.7174 3.05443 44.5327 2.63898C45.4597 2.16667 46.6731 2.16667 49.1 2.16667H56.9C59.3269 2.16667 60.5404 2.16667 61.4673 2.63898C62.2827 3.05443 62.9456 3.71734 63.361 4.53271C63.8334 5.45966 63.8334 6.67311 63.8334 9.1V16.9C63.8334 19.3269 63.8334 20.5403 63.361 21.4673C62.9456 22.2827 62.2827 22.9456 61.4673 23.361C60.5404 23.8333 59.3269 23.8333 56.9 23.8333H49.1C46.6731 23.8333 45.4597 23.8333 44.5327 23.361C43.7174 22.9456 43.0544 22.2827 42.639 21.4673C42.1667 20.5403 42.1667 19.3269 42.1667 16.9V9.1ZM56.7917 6.5C55.2959 6.5 54.0834 7.71257 54.0834 9.20834C54.0834 10.7041 55.2959 11.9167 56.7917 11.9167C58.2875 11.9167 59.5 10.7041 59.5 9.20834C59.5 7.71257 58.2875 6.5 56.7917 6.5Z" fill="black"/>
</g>
</svg>
