<svg width="36" height="40" viewBox="0 0 36 40" fill="none" xmlns="http://www.w3.org/2000/svg">
<rect y="2" width="36" height="36" rx="18" fill="#00A2C9"/>
<path d="M20.4999 19.9999C20.4999 21.3806 19.3807 22.4999 17.9999 22.4999C16.6192 22.4999 15.4999 21.3806 15.4999 19.9999C15.4999 18.6192 16.6192 17.4999 17.9999 17.4999C19.3807 17.4999 20.4999 18.6192 20.4999 19.9999Z" fill="white"/>
<path fill-rule="evenodd" clip-rule="evenodd" d="M12.1619 13.5527C10.5375 13.7964 9.23718 15.0269 8.90437 16.6355C8.44473 18.857 8.42335 21.147 8.84144 23.3768L8.89708 23.6735C9.23281 25.4641 10.6688 26.8437 12.4714 27.1075L13.2503 27.2215C16.4 27.6824 19.5999 27.6824 22.7495 27.2215L23.5285 27.1075C25.3311 26.8437 26.7671 25.4641 27.1028 23.6735L27.1584 23.3768C27.5765 21.147 27.5552 18.857 27.0955 16.6355C26.7627 15.0269 25.4624 13.7964 23.8379 13.5527L22.9291 13.4164C22.5664 13.362 22.2251 13.2107 21.9413 12.9784L21.5162 12.6306C21.1244 12.31 20.9284 12.1497 20.7187 12.0199C20.2675 11.7405 19.762 11.5601 19.2358 11.4906C18.9913 11.4583 18.7381 11.4583 18.2319 11.4583H17.768C17.2617 11.4583 17.0086 11.4583 16.7641 11.4906C16.2379 11.5601 15.7324 11.7405 15.2811 12.0199C15.0715 12.1497 14.8755 12.31 14.4837 12.6306L14.0586 12.9784C13.7748 13.2107 13.4335 13.362 13.0708 13.4164L12.1619 13.5527ZM22.1666 19.9999C22.1666 22.3011 20.3011 24.1666 17.9999 24.1666C15.6988 24.1666 13.8333 22.3011 13.8333 19.9999C13.8333 17.6987 15.6988 15.8333 17.9999 15.8333C20.3011 15.8333 22.1666 17.6987 22.1666 19.9999Z" fill="white"/>
</svg>
