<svg width="36" height="40" viewBox="0 0 36 40" fill="none" xmlns="http://www.w3.org/2000/svg">
<rect y="2" width="36" height="36" rx="18" fill="black" fill-opacity="0.05"/>
<path d="M20.4999 20C20.4999 21.3808 19.3806 22.5 17.9999 22.5C16.6192 22.5 15.4999 21.3808 15.4999 20C15.4999 18.6193 16.6192 17.5 17.9999 17.5C19.3806 17.5 20.4999 18.6193 20.4999 20Z" fill="black" fill-opacity="0.65"/>
<path fill-rule="evenodd" clip-rule="evenodd" d="M12.1619 13.5528C10.5375 13.7965 9.23714 15.027 8.90434 16.6356C8.4447 18.8572 8.42332 21.1471 8.84141 23.3769L8.89704 23.6736C9.23278 25.4642 10.6688 26.8439 12.4714 27.1077L13.2503 27.2216C16.3999 27.6826 19.5999 27.6826 22.7495 27.2216L23.5284 27.1077C25.331 26.8439 26.767 25.4642 27.1028 23.6736L27.1584 23.3769C27.5765 21.1471 27.5551 18.8572 27.0955 16.6356C26.7627 15.027 25.4624 13.7965 23.8379 13.5528L22.929 13.4165C22.5664 13.3621 22.2251 13.2108 21.9412 12.9786L21.5161 12.6308C21.1243 12.3102 20.9284 12.1499 20.7187 12.02C20.2674 11.7406 19.762 11.5602 19.2358 11.4907C18.9913 11.4584 18.7381 11.4584 18.2318 11.4584H17.768C17.2617 11.4584 17.0086 11.4584 16.7641 11.4907C16.2379 11.5602 15.7324 11.7406 15.2811 12.02C15.0714 12.1499 14.8755 12.3102 14.4837 12.6307L14.0586 12.9786C13.7747 13.2108 13.4335 13.3621 13.0708 13.4165L12.1619 13.5528ZM22.1666 20C22.1666 22.3012 20.3011 24.1667 17.9999 24.1667C15.6987 24.1667 13.8332 22.3012 13.8332 20C13.8332 17.6989 15.6987 15.8334 17.9999 15.8334C20.3011 15.8334 22.1666 17.6989 22.1666 20Z" fill="black" fill-opacity="0.65"/>
</svg>
