<svg width="36" height="40" viewBox="0 0 36 40" fill="none" xmlns="http://www.w3.org/2000/svg">
<rect y="2" width="36" height="36" rx="18" fill="#00A2C9"/>
<path d="M20.4999 20C20.4999 21.3807 19.3807 22.5 17.9999 22.5C16.6192 22.5 15.4999 21.3807 15.4999 20C15.4999 18.6193 16.6192 17.5 17.9999 17.5C19.3807 17.5 20.4999 18.6193 20.4999 20Z" fill="white"/>
<path fill-rule="evenodd" clip-rule="evenodd" d="M12.1619 13.5528C10.5375 13.7964 9.23718 15.027 8.90437 16.6355C8.44473 18.8571 8.42335 21.1471 8.84144 23.3769L8.89708 23.6736C9.23281 25.4642 10.6688 26.8438 12.4714 27.1076L13.2503 27.2216C16.4 27.6825 19.5999 27.6825 22.7495 27.2216L23.5285 27.1076C25.3311 26.8438 26.7671 25.4642 27.1028 23.6736L27.1584 23.3769C27.5765 21.1471 27.5552 18.8571 27.0955 16.6355C26.7627 15.027 25.4624 13.7964 23.8379 13.5528L22.9291 13.4164C22.5664 13.362 22.2251 13.2107 21.9413 12.9785L21.5162 12.6307C21.1244 12.3101 20.9284 12.1498 20.7187 12.02C20.2675 11.7406 19.762 11.5601 19.2358 11.4906C18.9913 11.4583 18.7381 11.4583 18.2319 11.4583H17.768C17.2617 11.4583 17.0086 11.4583 16.7641 11.4906C16.2379 11.5601 15.7324 11.7406 15.2811 12.02C15.0715 12.1498 14.8755 12.3101 14.4837 12.6307L14.0586 12.9785C13.7748 13.2107 13.4335 13.362 13.0708 13.4164L12.1619 13.5528ZM22.1666 20C22.1666 22.3012 20.3011 24.1667 17.9999 24.1667C15.6988 24.1667 13.8333 22.3012 13.8333 20C13.8333 17.6988 15.6988 15.8333 17.9999 15.8333C20.3011 15.8333 22.1666 17.6988 22.1666 20Z" fill="white"/>
</svg>
