<svg width="16" height="18" viewBox="0 0 16 18" fill="none" xmlns="http://www.w3.org/2000/svg">
<path fill-rule="evenodd" clip-rule="evenodd" d="M0.466757 1.03529C2.88578 -0.171129 6.19686 -0.534169 8.48945 1.10338C10.3303 2.41823 12.8798 1.9602 14.7813 1.03529C15.3311 0.760882 15.9997 1.17422 16 1.78822V11.0513C16 11.3702 15.8194 11.6616 15.5342 11.8043C13.0837 13.0295 9.85528 13.411 7.51055 11.7362C5.81384 10.5244 3.50231 10.8891 1.68447 11.6039V16.9455C1.68447 17.178 1.49564 17.3669 1.26311 17.3669H0.421364C0.188833 17.3669 0 17.178 0 16.9455V1.78822C0.000132987 1.47224 0.184117 1.17649 0.466757 1.03529ZM7.51055 2.47405C5.82386 1.26928 3.50101 1.62654 1.68447 2.34083V9.81487C3.90294 9.08454 6.50521 8.94918 8.48945 10.3665C10.1862 11.5783 12.4977 11.2136 14.3155 10.4987V3.02567C12.0971 3.75595 9.49475 3.89125 7.51055 2.47405Z" fill="#FF4C3A"/>
</svg>
