<svg width="26" height="26" viewBox="0 0 26 26" fill="none" xmlns="http://www.w3.org/2000/svg">
<path d="M13.0056 4.02998L10.6183 8.79304C10.3793 9.2698 9.92161 9.59897 9.39358 9.67381L3.98781 10.44L7.88419 14.1633C8.27837 14.54 8.45738 15.0893 8.36085 15.6259L7.43566 20.769L12.2485 18.2611C12.719 18.0159 13.2796 18.0159 13.7502 18.261L18.5678 20.7709L17.6487 15.6238C17.5531 15.0883 17.7317 14.5405 18.1247 14.1643L22.0165 10.4388L16.6476 9.67362C16.123 9.59886 15.6678 9.27303 15.4279 8.80058L13.0056 4.02998ZM11.5498 2.09925C12.1474 0.906924 13.8476 0.902491 14.4514 2.09169L17.2323 7.56839L23.4251 8.45103C24.7673 8.64232 25.2989 10.2961 24.3195 11.2336L19.8326 15.5287L20.8944 21.4747C21.1316 22.8029 19.7404 23.8249 18.5439 23.2015L12.9994 20.313L7.45806 23.2005C6.26065 23.8244 4.86874 22.8006 5.1078 21.4717L6.17688 15.5287L1.68382 11.2352C0.702763 10.2977 1.23492 8.64186 2.57844 8.45144L8.80849 7.56842L11.5498 2.09925Z" fill="black"/>
</svg>
