<svg width="26" height="26" viewBox="0 0 26 26" fill="none" xmlns="http://www.w3.org/2000/svg">
<path d="M9.20831 12.4583C10.1058 12.4583 10.8333 11.6095 10.8333 10.5625C10.8333 9.51546 10.1058 8.66666 9.20831 8.66666C8.31085 8.66666 7.58331 9.51546 7.58331 10.5625C7.58331 11.6095 8.31085 12.4583 9.20831 12.4583Z" fill="black"/>
<path d="M16.25 12.4583C17.1474 12.4583 17.875 11.6095 17.875 10.5625C17.875 9.51546 17.1474 8.66666 16.25 8.66666C15.3525 8.66666 14.625 9.51546 14.625 10.5625C14.625 11.6095 15.3525 12.4583 16.25 12.4583Z" fill="black"/>
<path d="M24.3825 15.9566C24.525 15.8142 24.6261 15.635 24.6671 15.4377C24.8307 14.6508 24.9166 13.8354 24.9166 13C24.9166 6.4186 19.5814 1.08333 13 1.08333C6.41859 1.08333 1.08331 6.4186 1.08331 13C1.08331 19.5814 6.41859 24.9167 13 24.9167C13.8354 24.9167 14.6508 24.8307 15.4377 24.6671C15.635 24.6261 15.8141 24.525 15.9566 24.3825L24.3825 15.9566ZM21.5667 15.7083L15.7083 21.5667V21.125C15.7083 18.1335 18.1334 15.7083 21.125 15.7083H21.5667ZM13.5416 22.7353C13.3625 22.745 13.1819 22.75 13 22.75C7.6152 22.75 3.24998 18.3848 3.24998 13C3.24998 7.61522 7.6152 3.24999 13 3.24999C18.3848 3.24999 22.75 7.61522 22.75 13C22.75 13.1819 22.745 13.3625 22.7352 13.5417H21.125C16.9368 13.5417 13.5416 16.9368 13.5416 21.125V22.7353Z" fill="black"/>
</svg>
