<svg width="19" height="18" viewBox="0 0 19 18" fill="none" xmlns="http://www.w3.org/2000/svg">
<path fill-rule="evenodd" clip-rule="evenodd" d="M8.73009 0.0744762C9.03284 -0.0620057 9.3877 -0.00788259 9.63655 0.212028L18.714 8.23457C18.8968 8.39614 19.0016 8.62885 19 8.87285C18.9983 9.11671 18.8909 9.3481 18.7061 9.50717L9.62863 17.3179C9.37843 17.5332 9.02515 17.5832 8.72514 17.4456C8.4252 17.3079 8.23332 17.0077 8.23332 16.6777V12.469C5.83426 12.5885 3.18612 13.2075 1.44083 14.9528C1.19932 15.1942 0.835996 15.2666 0.52052 15.1359C0.205295 15.0052 0.000131519 14.6974 0 14.3561C0 9.42347 3.25187 5.46914 8.23332 5.09067V0.844371C8.23345 0.512446 8.4275 0.210934 8.73009 0.0744762ZM9.92155 5.91103C9.92155 6.13855 9.83004 6.35675 9.66722 6.51566C9.50435 6.67452 9.28409 6.76074 9.05665 6.75514C5.50655 6.66639 2.46029 9.01032 1.84062 12.5224C3.72837 11.3837 5.97922 10.8874 8.16504 10.7808C8.4506 10.7668 8.68252 10.7639 8.84488 10.7639C9.34231 10.7639 9.92137 10.871 9.92155 11.611V14.8371L16.8704 8.858L9.92155 2.71765V5.91103Z" fill="black"/>
</svg>
