<svg width="28" height="28" viewBox="0 0 28 28" fill="none" xmlns="http://www.w3.org/2000/svg">
<g clip-path="url(#clip0_0_284)">
<path d="M2.91667 8.16665C2.91667 4.94665 5.53 2.33331 8.75 2.33331C11.97 2.33331 14.5833 4.94665 14.5833 8.16665C14.5833 11.3866 11.97 14 8.75 14C5.53 14 2.91667 11.3866 2.91667 8.16665Z" fill="black"/>
<path d="M8.75 15.75C3.11912 15.75 0 19.8566 0 23.2374C0 25.0833 1.02941 25.0833 4.63235 25.0833H12.8676C16.4706 25.0833 17.5 25.0833 17.5 23.2374C17.5 19.8566 14.3809 15.75 8.75 15.75Z" fill="black"/>
<path d="M19.8216 24.5H24.0197C26.6618 24.5 27.4167 24.5 27.4167 23.1155C27.4167 20.58 25.1294 17.5 21.0001 17.5C19.8355 17.5 18.8174 17.745 17.9559 18.1536C19.2814 20.2493 19.7452 22.6041 19.8216 24.5Z" fill="black"/>
<path d="M21 15.75C23.5773 15.75 25.6667 13.6606 25.6667 11.0833C25.6667 8.50598 23.5773 6.41665 21 6.41665C18.4227 6.41665 16.3333 8.50598 16.3333 11.0833C16.3333 13.6606 18.4227 15.75 21 15.75Z" fill="black"/>
</g>
<defs>
<clipPath id="clip0_0_284">
<rect width="28" height="28" fill="white"/>
</clipPath>
</defs>
</svg>
